<svg width="99" height="40" viewBox="0 0 99 40" fill="none" xmlns="http://www.w3.org/2000/svg">
<path d="M17.7557 0.905369C15.1967 1.31601 12.4599 2.39735 10.3936 3.8209L9.27152 4.60111L7.76627 4.66955L6.26102 4.73799L6.1926 6.24367L6.12418 7.74934L5.48103 8.63906C4.65998 9.78884 3.7021 11.7325 3.19579 13.2519C2.79895 14.4291 2.36106 16.318 2.36106 16.8108C2.36106 16.9476 1.8958 17.5225 1.33475 18.0837L0.308441 19.1103L1.32106 20.1369L2.33369 21.1635L2.55263 22.4091C2.97684 24.8319 4.00315 27.3505 5.41261 29.4037L6.17892 30.5398L6.21997 31.9359L6.26102 33.3458L7.69785 33.4142L9.13468 33.4827L10.1884 34.1944C12.3231 35.6591 15.0188 36.7678 17.3999 37.1647L18.5493 37.3564L19.5209 38.3282C20.0546 38.862 20.5609 39.3 20.6293 39.3C20.6977 39.3 21.2041 38.862 21.7377 38.3282L22.7093 37.3564L23.8588 37.1647C26.5135 36.6993 29.4282 35.4264 31.6313 33.7701C32.0692 33.4416 32.2198 33.4142 33.5197 33.4142H34.9292V32.0044V30.6082L35.5997 29.6911C36.5166 28.4181 37.4334 26.5976 37.9944 24.914C38.5281 23.3262 38.7197 22.3954 38.5281 22.2859C38.3365 22.1627 38.1997 22.3133 37.4744 23.3947C36.626 24.6676 35.1208 26.2828 33.9713 27.1452C31.7545 28.8288 28.484 29.8554 25.364 29.8554H24.3103L23.6946 29.1983C22.504 27.9664 21.7104 26.5566 21.1767 24.7087C20.9851 24.0654 20.8346 23.3947 20.8346 23.2167C20.8346 23.0525 20.7525 22.8335 20.643 22.7513C20.4925 22.6144 20.3009 22.7787 19.6578 23.5589C18.262 25.2425 16.2778 26.6113 14.4167 27.1725C13.1852 27.5421 13.1441 27.5147 13.4041 26.6661C13.8831 25.0509 14.6904 23.7916 16.3599 22.108C17.742 20.6844 17.742 20.6571 16.2915 20.4928C15.1831 20.3696 13.3494 19.7263 12.2547 19.0693C11.1599 18.4259 9.66836 17.0982 9.79152 16.8929C10.1336 16.3454 14.102 16.318 15.8399 16.8518C16.3736 17.0161 16.9757 17.194 17.1946 17.2214C17.5504 17.2898 17.5778 17.2761 17.5093 16.975C17.4683 16.7971 17.3041 16.2769 17.1399 15.8252C16.6746 14.5522 16.4557 13.3477 16.4557 11.9105C16.4557 7.85884 18.7957 4.51899 22.5725 3.20494C23.5167 2.87643 23.8451 2.83537 25.4188 2.83537C26.8693 2.82168 27.3893 2.87643 28.265 3.1365C28.8535 3.30076 29.3871 3.41026 29.4556 3.3692C30.044 2.99962 26.883 1.61714 24.1461 1.02856C22.6819 0.727425 19.3157 0.658985 17.7557 0.905369ZM24.3925 1.64452C26.1851 2.05516 26.4177 2.19204 25.3777 2.19204C24.0093 2.20572 22.5177 2.5753 21.122 3.24601C20.0956 3.75246 19.6441 4.06728 18.7957 4.91594C18.2072 5.49083 17.5367 6.32579 17.2904 6.75012C17.0441 7.18813 16.8251 7.54402 16.7841 7.54402C16.7567 7.54402 16.4694 7.37976 16.1409 7.17445C15.8262 6.96913 15.142 6.64062 14.6083 6.4353C13.8557 6.13416 13.6641 5.99728 13.6915 5.80565C13.7873 5.2992 14.6767 3.61558 15.3199 2.72586C16.0315 1.74033 16.0725 1.72665 18.2346 1.38445C19.4935 1.17913 23.0788 1.32969 24.3925 1.64452ZM14.7862 2.50686C14.1294 3.50608 13.7189 4.28629 13.4315 5.03913L13.1031 5.90147L12.282 5.81934C11.8305 5.77827 11.0368 5.72353 10.5031 5.72353C9.62731 5.69615 9.54521 5.66877 9.50415 5.39501C9.47679 5.17601 9.65468 4.97069 10.3252 4.5053C11.4883 3.68402 12.3504 3.19125 13.582 2.67111C14.8546 2.10991 15.0599 2.09622 14.7862 2.50686ZM9.32626 6.76381C9.57257 7.5714 9.76415 8.26948 9.7231 8.29686C9.68205 8.33792 8.99784 8.14629 8.20416 7.85884L6.73997 7.35239V6.27104V5.20338L7.79364 5.24445L8.84732 5.28551L9.32626 6.76381ZM12.4599 6.39423C12.8568 6.46267 12.9115 6.50374 12.8431 6.76381C12.6104 7.54402 12.5968 9.43296 12.802 10.5554C13.1031 12.1569 14.1157 14.1553 15.2241 15.3735C15.6894 15.8937 16.0452 16.3043 16.0178 16.3043C15.9904 16.3043 15.5388 16.2085 15.0188 16.099C13.7052 15.8252 11.4199 15.8526 10.2431 16.1537L9.31258 16.4001L8.91574 15.7705C8.45048 15.0587 8.02627 13.95 7.80733 12.9781C7.62943 12.1569 7.7389 9.43296 7.95785 8.83069L8.12206 8.39267L9.21679 8.74856C9.90099 8.98125 10.3389 9.06338 10.421 8.98125C10.5031 8.89913 10.4073 8.37898 10.1473 7.61246C9.92836 6.92806 9.75047 6.36686 9.75047 6.35317C9.73678 6.18892 11.3105 6.21629 12.4599 6.39423ZM15.0188 7.21551C15.5525 7.46189 16.1136 7.7904 16.2778 7.9136L16.5925 8.15998L16.2915 9.04969C15.8673 10.3227 15.8673 13.5941 16.2915 15.004C16.442 15.5241 16.5515 15.9758 16.5378 16.0032C16.4557 16.0716 15.3473 14.7576 14.7862 13.9363C13.6094 12.2116 13.0894 10.3364 13.2125 8.31054C13.2536 7.62615 13.322 6.96913 13.3768 6.84594C13.4862 6.55849 13.7873 6.62693 15.0188 7.21551ZM7.46522 8.21473C7.51996 8.26948 7.47891 8.68012 7.35575 9.11813C7.08207 10.1721 7.09575 12.28 7.36943 13.4161C7.49259 13.9089 7.83469 14.826 8.13574 15.4557C8.43679 16.0853 8.66942 16.6054 8.64206 16.6328C8.61469 16.6602 8.24522 16.8792 7.83469 17.1256C7.42417 17.372 6.7947 17.81 6.43892 18.1111L5.79576 18.6449L5.15261 17.7826C4.79682 17.3035 4.24946 16.3727 3.92104 15.7157L3.33263 14.5112L3.53789 13.8405C4.03052 12.1979 5.22103 9.8436 6.31576 8.39267C6.58944 8.0231 6.7126 7.95466 6.99996 8.0231C7.19154 8.07785 7.41049 8.15998 7.46522 8.21473ZM3.93473 16.9066C4.27683 17.5088 4.55051 18.0153 4.55051 18.0427C4.55051 18.0974 3.11368 17.3172 2.9221 17.1803C2.89474 17.153 2.9221 16.756 2.97684 16.2769C3.04526 15.6747 3.11368 15.4693 3.20947 15.6199C3.27789 15.7294 3.60631 16.318 3.93473 16.9066ZM9.88731 17.8921C11.2283 19.2472 12.9525 20.2191 15.0188 20.7939L15.9357 21.0403L15.4157 21.2046C15.1146 21.2867 14.3346 21.4236 13.6778 21.492C11.4336 21.7521 9.42205 21.3004 7.67048 20.1506C6.34313 19.2883 6.21997 19.124 6.54839 18.7408C6.86312 18.3849 8.76521 17.1256 8.98416 17.1256C9.06626 17.1256 9.47679 17.4678 9.88731 17.8921ZM3.42842 18.07C3.85262 18.2891 4.48209 18.6176 4.81051 18.8092L5.41261 19.1514L3.96209 19.8769L2.4979 20.6023L1.81369 19.9316C1.44422 19.562 1.12949 19.1925 1.12949 19.124C1.12949 18.9598 2.37474 17.6731 2.52526 17.6731C2.59369 17.6731 2.99052 17.851 3.42842 18.07ZM6.65786 20.1232C7.9989 21.1635 9.70942 21.8479 11.4336 22.0396C12.3504 22.1491 14.4441 22.0396 15.1146 21.8479C15.2515 21.8069 15.4978 21.7384 15.662 21.6974C15.8809 21.6289 15.7852 21.8069 15.2378 22.4091C14.0199 23.7642 13.2262 25.2973 12.6789 27.3505C12.6104 27.5969 10.6947 27.5832 9.68205 27.3231C8.45048 27.0083 7.04102 26.2828 6.09681 25.4889C5.23472 24.7771 3.86631 23.0114 3.86631 22.6281C3.86631 22.1627 5.52208 19.5894 5.80945 19.5894C5.89155 19.5894 6.27471 19.8358 6.65786 20.1232ZM3.83894 21.451C3.53789 22.0396 3.25052 22.5597 3.23684 22.5871C3.12736 22.7103 3.04526 22.4776 2.96316 21.7521L2.88105 20.9856L3.60631 20.6571C4.01683 20.4654 4.35893 20.3286 4.37262 20.3422C4.3863 20.3422 4.15367 20.8487 3.83894 21.451ZM4.00315 23.9832C4.19472 24.2981 4.82419 25.0098 5.42629 25.5574C7.15049 27.1999 9.28521 28.0622 11.5978 28.0759H12.5557L12.5694 29.3489C12.5831 30.0333 12.6515 30.8409 12.7199 31.1147C12.8431 31.539 12.8294 31.6348 12.6515 31.7032C12.241 31.8538 9.88731 31.9496 9.88731 31.8127C9.88731 31.7443 10.0378 31.2242 10.2294 30.6766C10.5989 29.5679 10.6536 29.171 10.421 29.171C10.3252 29.171 9.4631 29.4174 8.49153 29.7322C6.46628 30.3618 6.78102 30.4576 5.72734 28.8972C4.63262 27.2547 3.45578 24.5855 3.45578 23.7369C3.45578 23.2852 3.61999 23.3536 4.00315 23.9832ZM19.7946 24.8182C19.2746 26.625 18.1115 28.5276 16.8388 29.65C16.182 30.2113 14.3894 31.2105 13.6368 31.4295C13.3904 31.4842 13.322 31.4295 13.2536 31.1283C13.1168 30.4303 13.021 28.2813 13.1304 28.1444C13.1852 28.0622 13.6778 27.898 14.1978 27.7611C16.0452 27.2957 17.8651 26.2281 19.2609 24.8045C19.6304 24.4213 19.9451 24.1064 19.9725 24.1064C19.9862 24.1064 19.9041 24.4349 19.7946 24.8182ZM37.3513 25.2152C36.8997 26.406 36.106 27.9664 35.4355 28.9657C34.4913 30.3755 34.6966 30.3071 33.0682 29.7596C32.2882 29.4995 31.645 29.2394 31.6587 29.1983C31.6587 29.1436 32.0829 28.8972 32.6029 28.6508C33.8755 28.0212 35.5587 26.6524 36.6671 25.352C37.1734 24.7498 37.6113 24.2707 37.6387 24.2981C37.6523 24.3254 37.5292 24.7361 37.3513 25.2152ZM20.8893 25.5984C21.0809 26.1596 21.4367 26.9535 21.6693 27.3779C22.1756 28.2813 23.3114 29.7185 23.7082 29.9649C23.9819 30.1291 23.9819 30.1428 23.7219 30.6493C23.0651 31.9359 21.1493 34.0028 20.9988 33.5785C20.8893 33.25 20.4651 33.4279 20.2462 33.907C19.8904 34.6325 18.4125 35.1937 16.3051 35.399C15.3883 35.4811 15.3883 35.4811 15.0462 35.0294C14.6767 34.5503 13.801 32.8667 13.6504 32.3466C13.582 32.0865 13.6231 32.0044 13.8831 31.9359C14.5262 31.7717 16.2778 30.8135 16.962 30.2386C18.3988 29.0478 19.4935 27.3915 20.1504 25.4342C20.3283 24.9277 20.4788 24.5308 20.5062 24.5444C20.5198 24.5718 20.6977 25.0372 20.8893 25.5984ZM31.0703 30.6082C31.2345 31.1694 31.3713 31.7032 31.3713 31.7854C31.3713 31.9086 31.0019 31.9222 29.9756 31.8675C28.3335 31.758 27.4714 31.5527 26.1987 30.9367L25.2819 30.4987L26.8008 30.3208C27.6356 30.2249 28.785 30.0196 29.3324 29.8691C30.8103 29.4858 30.7282 29.4447 31.0703 30.6082ZM34.0808 30.6766L34.5187 30.8409V31.8538V32.8667H33.424H32.3429L31.9461 31.5937C31.7134 30.9093 31.4945 30.1976 31.4534 30.0333C31.3577 29.7322 31.3577 29.7322 32.4934 30.1291C33.1229 30.3344 33.8345 30.5945 34.0808 30.6766ZM9.88731 29.9512C9.88731 30.0059 9.66836 30.6766 9.39468 31.4569L8.88837 32.8667H7.82101H6.73997V31.8401V30.8272L8.21785 30.3618C9.85994 29.828 9.88731 29.8143 9.88731 29.9512ZM26.7187 31.7717C27.1703 31.9359 27.5398 32.1276 27.5398 32.196C27.5398 32.5245 26.8008 34.0713 26.2535 34.8925C25.2956 36.3298 25.2409 36.3708 23.8451 36.6309C23.1472 36.7541 22.5725 36.8362 22.5451 36.8088C22.5314 36.7815 22.2304 36.2066 21.8883 35.5359L21.2725 34.3039L22.2167 33.4416C22.723 32.9762 23.4346 32.1276 23.7767 31.58L24.4198 30.5808L25.1588 31.0188C25.5556 31.2652 26.2672 31.5937 26.7187 31.7717ZM13.7325 33.7701C14.1567 34.6188 14.4167 35.3305 14.3346 35.3305C14.2389 35.3305 13.6915 35.2074 13.1031 35.0568C11.762 34.7146 9.43573 33.2637 9.50415 32.7983C9.54521 32.5519 9.68205 32.5108 11.0368 32.4287C11.8578 32.3739 12.5557 32.2918 12.5968 32.2508C12.8157 32.0454 13.0346 32.3466 13.7325 33.7701ZM30.0987 32.415C31.2619 32.4835 31.645 32.5382 31.7134 32.6888C31.8229 32.9899 31.7271 33.072 30.5913 33.8522C29.6198 34.4956 27.2114 35.7275 26.4587 35.9465C26.144 36.0423 26.1577 36.0286 26.5819 35.399C27.0472 34.7146 28.0872 32.593 28.0872 32.3192C28.0872 32.2097 28.1829 32.1823 28.3335 32.2508C28.4566 32.3055 29.2503 32.3739 30.0987 32.415ZM21.423 35.7686L22.0662 37.1647L21.3546 37.8902L20.6293 38.6157L19.9041 37.8902L19.1651 37.151L19.863 35.7686C20.2462 35.002 20.6156 34.3724 20.6704 34.3724C20.7388 34.3724 21.0809 35.002 21.423 35.7686ZM19.0967 36.0697L18.7136 36.8499L18.1662 36.7678C17.2767 36.6309 15.3473 36.1655 15.1146 36.0286C14.9641 35.9465 15.2515 35.9054 15.9494 35.8918C17.0167 35.8781 18.7136 35.5906 19.1514 35.3442C19.2883 35.2758 19.4114 35.2347 19.4388 35.2621C19.4662 35.2758 19.302 35.6454 19.0967 36.0697Z" fill="#925471"/>
<path d="M33.9303 3.39661C33.7797 3.64299 33.7934 5.36767 33.9439 5.51824C34.1766 5.75093 34.3134 5.29923 34.3134 4.27264C34.3134 3.72512 34.2587 3.36923 34.1492 3.34186C34.0671 3.31448 33.9713 3.34186 33.9303 3.39661Z" fill="#925471"/>
<path d="M30.3861 5.3265C30.1261 5.38125 30.0576 5.55919 30.2492 5.68239C30.3997 5.7782 30.7282 5.54551 30.6734 5.39494C30.6461 5.3265 30.5092 5.29912 30.3861 5.3265Z" fill="#925471"/>
<path d="M38.1587 6.16147C38.0492 6.32573 38.446 6.62686 38.6239 6.51736C38.7334 6.44892 38.7334 6.36679 38.6102 6.22991C38.4323 6.01091 38.2681 5.98353 38.1587 6.16147Z" fill="#925471"/>
<path d="M73.0941 6.17517C72.971 6.24361 72.7931 6.49 72.711 6.709C72.5741 7.03751 72.5741 7.17439 72.752 7.53028C73.2994 8.58425 74.8183 7.94092 74.531 6.77744C74.3804 6.17517 73.6278 5.86035 73.0941 6.17517Z" fill="#925471"/>
<path d="M30.6324 6.2847C30.605 6.33945 30.6187 6.47633 30.6871 6.57215C30.8376 6.83222 31.2482 6.65428 31.1524 6.38052C31.0703 6.16151 30.7555 6.10676 30.6324 6.2847Z" fill="#925471"/>
<path d="M37.5429 7.05137C37.406 7.21563 37.4334 7.28407 37.6523 7.39357C37.9534 7.55782 38.1587 7.39357 38.0218 7.06506C37.926 6.80499 37.7481 6.80499 37.5429 7.05137Z" fill="#925471"/>
<path d="M45.6028 7.11961C45.6028 7.18805 45.8217 7.28387 46.0817 7.32493C46.4375 7.39337 46.6154 7.51656 46.6975 7.76295C46.848 8.13252 46.8891 16.578 46.7522 17.0844C46.6975 17.3034 46.4922 17.454 46.1365 17.5635C45.8354 17.6456 45.6028 17.7688 45.6028 17.8373C45.6028 17.892 47.4091 17.9468 49.6122 17.9468H53.608L53.5669 16.3042C53.5259 14.7027 53.3753 14.21 53.1975 15.0997C52.9101 16.6601 52.5269 17.2898 51.7743 17.5088C51.5827 17.5635 50.8164 17.6046 50.0775 17.6046C48.0659 17.6046 48.2028 17.9605 48.2028 12.54C48.2028 10.0488 48.2575 7.95458 48.3396 7.76295C48.4217 7.51656 48.5996 7.39337 48.9554 7.32493C49.968 7.1333 49.3659 6.99642 47.5186 6.99642C46.4649 6.99642 45.6028 7.05117 45.6028 7.11961Z" fill="#925471"/>
<path d="M33.7934 7.50305C33.7524 7.57149 33.6839 8.32433 33.6292 9.20036C33.5471 10.3912 33.5745 10.8155 33.6976 10.8977C33.9987 11.0893 34.0808 10.7608 34.1355 9.13192C34.1629 7.98213 34.1355 7.48936 34.0124 7.4483C33.9303 7.42092 33.8345 7.4483 33.7934 7.50305Z" fill="#925471"/>
<path d="M25.7746 7.73561C25.6103 7.94093 25.7335 8.0778 26.6914 8.69376C27.2524 9.04965 27.6766 9.09071 27.6766 8.78958C27.6766 8.66639 27.0335 8.21468 26.0893 7.63979C25.9935 7.58504 25.8567 7.6261 25.7746 7.73561Z" fill="#925471"/>
<path d="M41.0186 8.68008C40.266 9.07703 39.8555 9.59717 40.2934 9.59717C40.6355 9.58348 42.1134 8.70745 42.1134 8.51582C42.1134 8.18731 41.8671 8.21469 41.0186 8.68008Z" fill="#925471"/>
<path d="M31.864 8.6801C31.7134 8.7896 31.6587 8.91279 31.7271 8.95386C31.9187 9.06336 32.2334 8.84435 32.1787 8.65272C32.1376 8.54322 32.0419 8.54322 31.864 8.6801Z" fill="#925471"/>
<path d="M36.0239 9.17281C36.0239 9.24125 36.106 9.36444 36.2155 9.44657C36.4344 9.62452 36.6534 9.4192 36.5029 9.1865C36.3934 9.02225 36.0239 9.00856 36.0239 9.17281Z" fill="#925471"/>
<path d="M32.2197 9.56972C32.124 9.63816 32.0829 9.78873 32.1376 9.91192C32.2061 10.0899 32.2745 10.1036 32.4797 10.0077C32.6166 9.92561 32.6987 9.77504 32.6576 9.66554C32.5619 9.43284 32.4797 9.41915 32.2197 9.56972Z" fill="#925471"/>
<path d="M29.2777 9.82987C29.2229 9.87094 29.1819 9.99413 29.1819 10.0763C29.1819 10.2953 31.8777 11.9652 32.0555 11.8557C32.3566 11.6777 32.1513 11.4177 31.2619 10.8838C29.6471 9.88462 29.3598 9.73406 29.2777 9.82987Z" fill="#925471"/>
<path d="M55.428 9.82988C54.8395 9.85726 54.3606 9.93938 54.3606 10.0078C54.3606 10.09 54.4427 10.1447 54.5522 10.1447C54.6616 10.1447 54.9353 10.2953 55.1406 10.4732L55.5237 10.8017L55.5922 13.8678C55.6743 17.3583 55.7016 17.4814 56.7553 17.8784C57.8637 18.3027 59.2048 17.8921 59.8342 16.9202L60.1763 16.4001L60.2174 17.2077L60.2584 18.0153L61.5447 17.9742C62.8858 17.9331 63.1595 17.81 62.4068 17.5909C61.6542 17.3719 61.6132 17.1529 61.6132 13.2382V9.693L61.189 9.78882C60.9563 9.82988 60.3679 9.87094 59.889 9.87094C58.9721 9.87094 58.7258 10.0626 59.4237 10.2131C60.1627 10.3774 60.2721 10.8154 60.2174 13.4846C60.1763 15.6883 60.1627 15.8663 59.8342 16.4275C59.41 17.194 58.9448 17.5362 58.2195 17.632C57.7543 17.7004 57.6174 17.6594 57.3164 17.3583L56.9606 17.0024V13.3614C56.9606 9.99414 56.9469 9.73407 56.7279 9.76144C56.5911 9.77513 56.0027 9.81619 55.428 9.82988Z" fill="#925471"/>
<path d="M72.9436 9.82983C72.3552 9.8572 71.8763 9.93933 71.8763 10.0078C71.8763 10.0899 71.972 10.1446 72.0815 10.1446C72.2047 10.1446 72.451 10.2952 72.6289 10.4868L72.971 10.8154V13.9088C72.971 15.702 72.9162 17.1118 72.8341 17.2624C72.7657 17.3993 72.5194 17.5498 72.2868 17.6046C71.3699 17.8099 71.972 17.9468 73.7236 17.9468C75.5436 17.9468 75.9952 17.8373 75.1331 17.5909C74.3804 17.3719 74.3394 17.1392 74.3394 13.2518C74.3394 10.5142 74.2983 9.73401 74.1752 9.76139C74.0794 9.77507 73.5183 9.81614 72.9436 9.82983Z" fill="#925471"/>
<path d="M77.3225 9.83004C76.7341 9.85742 76.2552 9.93954 76.2552 10.008C76.2552 10.0901 76.3373 10.1449 76.4468 10.1449C76.5562 10.1449 76.7752 10.2681 76.9531 10.4049C77.2815 10.665 77.2815 10.7198 77.3499 13.6627C77.4183 16.1265 77.4731 16.7288 77.6646 17.0846C77.9794 17.6869 78.4036 17.9333 79.2383 18.0428C80.1415 18.1386 81.2225 17.6459 81.7288 16.893L82.0709 16.3866L82.112 17.2078L82.153 18.0154L83.3709 17.9744C84.0551 17.947 84.6025 17.8649 84.6025 17.7964C84.6025 17.728 84.5067 17.6732 84.3972 17.6732C84.2741 17.6732 84.0278 17.5227 83.8499 17.331L83.5078 17.0025V13.3478V9.69316L83.0836 9.78898C82.8509 9.83004 82.2625 9.8711 81.7836 9.8711C80.812 9.8711 80.6752 10.008 81.3867 10.2681C82.0572 10.5007 82.1804 11.0756 82.112 13.6353C82.0709 15.4421 82.0299 15.7706 81.7425 16.3318C81.1678 17.5364 79.9499 18.0154 79.1836 17.3584L78.7867 17.0162L78.7457 13.3752C78.7046 10.6787 78.6499 9.74791 78.5404 9.7616C78.4446 9.77529 77.8973 9.81635 77.3225 9.83004Z" fill="#925471"/>
<path d="M86.7645 9.84352C85.9161 9.87089 85.5603 9.92564 85.5603 10.0488C85.5603 10.1446 85.7656 10.2815 86.0119 10.35C86.7098 10.569 86.8193 11.1028 86.7645 14.3332C86.7235 17.3171 86.6824 17.454 85.9572 17.6046C85.0677 17.7962 85.6561 17.9468 87.3393 17.9468C88.3245 17.9468 89.1182 17.9057 89.1182 17.8373C89.1182 17.7825 88.913 17.6456 88.6666 17.5361L88.2287 17.3308L88.1877 14.7164C88.1603 12.2115 88.1603 12.0883 88.4751 11.4998C88.8582 10.7743 89.5424 10.2815 90.1719 10.2815C90.815 10.2815 91.1161 10.4732 91.294 10.9796C91.4856 11.5134 91.4992 16.6875 91.3214 17.1666C91.2392 17.3856 91.034 17.5498 90.774 17.6046C89.8435 17.8099 90.4319 17.9468 92.1971 17.9468C93.9213 17.9468 94.5508 17.8099 93.6476 17.632C92.8129 17.4677 92.7856 17.3445 92.8403 14.5385C92.8813 12.1705 92.9087 11.9515 93.1961 11.445C93.6203 10.7195 94.0855 10.391 94.7971 10.3089C95.3034 10.2542 95.4403 10.2952 95.7413 10.5964L96.0971 10.9522V14.0457C96.0971 16.9476 96.0834 17.1392 95.8234 17.3993C95.6729 17.5498 95.4539 17.673 95.3445 17.673C95.235 17.673 95.1392 17.7278 95.1392 17.8099C95.1392 17.892 95.8234 17.9468 96.9181 17.9468C98.6971 17.9468 99.0939 17.851 98.2592 17.6046C97.5339 17.3856 97.4655 17.0844 97.4655 14.0868C97.4655 10.8564 97.356 10.4047 96.4529 9.99408C96.1382 9.8572 95.7003 9.73401 95.4676 9.73401C94.5097 9.73401 93.3877 10.3637 93.0866 11.0891C92.8677 11.6229 92.7308 11.6229 92.6213 11.0891C92.4982 10.4595 91.8687 9.91195 91.1298 9.80245C90.0487 9.6382 89.0635 10.1173 88.4751 11.0754L88.1603 11.5819V10.7332C88.1603 10.2678 88.1193 9.87089 88.0645 9.84352C87.9961 9.81614 87.4214 9.81614 86.7645 9.84352Z" fill="#925471"/>
<path d="M35.4081 10.008C35.3534 10.1038 35.3671 10.227 35.4492 10.3091C35.6408 10.5008 36.065 10.3365 35.9966 10.1038C35.9145 9.8848 35.5313 9.81636 35.4081 10.008Z" fill="#925471"/>
<path d="M63.6658 10.0078C63.6658 10.0762 63.789 10.1994 63.9258 10.2815C64.0764 10.35 64.7606 11.2534 65.4448 12.28C66.5669 13.9362 66.69 14.1689 66.5532 14.4427C66.1974 15.0723 64.3911 17.2076 63.9806 17.4677C63.7343 17.6183 63.5427 17.7825 63.529 17.8373C63.529 17.9057 64.2132 17.9468 65.0342 17.9468C65.9511 17.9468 66.5395 17.892 66.5395 17.8099C66.5395 17.7278 66.4437 17.673 66.3342 17.673C65.9921 17.673 65.4584 17.3582 65.3763 17.1118C65.2669 16.797 65.5269 16.3179 66.3069 15.305L66.9363 14.5111L67.8258 15.8115C68.3184 16.5095 68.7289 17.1939 68.7289 17.3034C68.7289 17.4266 68.6058 17.5635 68.4553 17.6046C67.8121 17.8099 68.2774 17.9468 69.6184 17.9468C70.4121 17.9468 71.0552 17.9057 71.0552 17.851C71.0552 17.8099 70.8774 17.6046 70.6447 17.4129C70.2068 17.016 67.9079 13.7446 67.9079 13.5119C67.9216 13.2107 69.9195 10.61 70.33 10.35C70.5763 10.1994 70.7679 10.0351 70.7816 9.96671C70.7816 9.91195 70.2342 9.87089 69.55 9.87089C68.8247 9.87089 68.3184 9.92564 68.3184 10.0078C68.3184 10.0762 68.4005 10.1446 68.4963 10.1446C68.5921 10.1446 68.7974 10.2405 68.9616 10.35C69.2216 10.5279 69.2489 10.6237 69.1258 10.9385C68.9753 11.3629 67.7711 13.156 67.6479 13.156C67.5658 13.156 65.9784 10.788 65.8827 10.5416C65.8553 10.4732 65.9921 10.35 66.1837 10.2678C66.8269 9.96671 66.5532 9.87089 65.1027 9.87089C64.2679 9.87089 63.6658 9.92564 63.6658 10.0078Z" fill="#925471"/>
<path d="M36.7492 10.9249C35.4492 11.6367 34.9976 12.061 35.5587 12.061C35.9692 12.061 38.5007 10.6375 38.4597 10.4322C38.3913 10.09 38.1723 10.1584 36.7492 10.9249Z" fill="#925471"/>
<path d="M32.6302 10.7881C32.685 11.0755 33.0818 11.1303 33.0818 10.8291C33.0818 10.7196 32.9724 10.6101 32.8355 10.5827C32.6439 10.5417 32.5892 10.5964 32.6302 10.7881Z" fill="#925471"/>
<path d="M34.8061 10.8839C34.6145 11.1166 34.7103 11.3767 34.9976 11.3767C35.2987 11.3767 35.3945 11.103 35.1755 10.8839C34.9976 10.706 34.9566 10.706 34.8061 10.8839Z" fill="#925471"/>
<path d="M25.624 11.9242C25.624 12.0748 25.6924 12.198 25.7609 12.198C25.843 12.198 25.8977 12.0748 25.8977 11.9242C25.8977 11.7737 25.843 11.6505 25.7609 11.6505C25.6924 11.6505 25.624 11.7737 25.624 11.9242Z" fill="#925471"/>
<path d="M26.5819 12.0747C26.5819 12.4169 27.0335 12.3758 27.1019 12.0199C27.1293 11.8557 27.0609 11.7872 26.8693 11.7872C26.664 11.7872 26.5819 11.8693 26.5819 12.0747Z" fill="#925471"/>
<path d="M29.1819 12.3349C29.1819 12.4855 29.2777 12.6086 29.3871 12.6086C29.4966 12.6086 29.5924 12.4855 29.5924 12.3349C29.5924 12.1843 29.4966 12.0611 29.3871 12.0611C29.2777 12.0611 29.1819 12.1843 29.1819 12.3349Z" fill="#925471"/>
<path d="M30.1398 12.4716C30.1398 12.6495 30.2356 12.7454 30.4135 12.7454C30.5914 12.7454 30.6872 12.6495 30.6872 12.4716C30.6872 12.2937 30.5914 12.1978 30.4135 12.1978C30.2356 12.1978 30.1398 12.2937 30.1398 12.4716Z" fill="#925471"/>
<path d="M31.3303 12.4854C31.2482 12.7729 31.645 12.9782 31.8092 12.7181C31.9734 12.4444 31.9461 12.3759 31.6587 12.2938C31.4808 12.2527 31.3713 12.3075 31.3303 12.4854Z" fill="#925471"/>
<path d="M35.6134 13.0192C35.6134 13.1972 35.7092 13.293 35.8871 13.293C36.065 13.293 36.1608 13.1972 36.1608 13.0192C36.1608 12.8413 36.065 12.7455 35.8871 12.7455C35.7092 12.7455 35.6134 12.8413 35.6134 13.0192Z" fill="#925471"/>
<path d="M36.7082 13.1562C36.7082 13.3341 36.8039 13.4299 36.9818 13.4299C37.1597 13.4299 37.2555 13.3341 37.2555 13.1562C37.2555 12.9782 37.1597 12.8824 36.9818 12.8824C36.8039 12.8824 36.7082 12.9782 36.7082 13.1562Z" fill="#925471"/>
<path d="M37.8986 13.2929C37.8576 13.4708 37.8986 13.5667 38.0218 13.5667C38.1313 13.5667 38.2134 13.4435 38.2134 13.2929C38.2134 13.1423 38.1586 13.0191 38.0902 13.0191C38.0218 13.0191 37.9397 13.1423 37.8986 13.2929Z" fill="#925471"/>
<path d="M40.4028 13.5805C40.4028 13.9227 40.8544 13.8817 40.9228 13.5258C40.9502 13.3615 40.8818 13.2931 40.6902 13.2931C40.4849 13.2931 40.4028 13.3752 40.4028 13.5805Z" fill="#925471"/>
<path d="M41.4976 13.5668C41.4976 13.7037 41.566 13.868 41.6344 13.909C41.7165 13.9501 41.7712 13.9638 41.7712 13.9227C41.7712 13.8953 41.8123 13.7721 41.8533 13.6626C41.8944 13.5531 41.826 13.4299 41.7165 13.3889C41.566 13.3204 41.4976 13.3889 41.4976 13.5668Z" fill="#925471"/>
<path d="M30.3998 14.2101C29.6198 14.6207 28.9493 14.9903 28.9219 15.0177C28.8945 15.0451 28.9082 15.1546 28.9629 15.2778C29.0314 15.4557 29.2914 15.3736 30.5503 14.7302C31.905 14.0322 32.2745 13.7173 31.9461 13.512C31.8913 13.471 31.1934 13.7858 30.3998 14.2101Z" fill="#925471"/>
<path d="M35.2576 13.8542C35.1344 14.0595 35.2302 14.1279 36.7081 15.0587C37.6933 15.6747 38.0491 15.8389 38.186 15.7294C38.4186 15.5241 38.1997 15.3188 36.7355 14.4154C35.5449 13.6626 35.4081 13.6215 35.2576 13.8542Z" fill="#925471"/>
<path d="M32.2061 14.3744C32.0692 14.6071 32.0829 14.6755 32.2608 14.744C32.6166 14.8808 32.8355 14.566 32.5755 14.3059C32.3703 14.1006 32.3429 14.1006 32.2061 14.3744Z" fill="#925471"/>
<path d="M34.2997 14.6755C34.2587 14.7576 34.2723 14.8808 34.3408 14.9492C34.5323 15.1408 34.9292 14.9492 34.8334 14.7165C34.7513 14.4838 34.4365 14.4564 34.2997 14.6755Z" fill="#925471"/>
<path d="M33.3829 14.7577C33.2324 14.9082 33.2734 18.0564 33.4239 18.1523C33.6839 18.3165 33.8345 17.5226 33.8345 16.0854C33.8345 14.9903 33.7934 14.6618 33.6566 14.6618C33.5471 14.6618 33.4239 14.7029 33.3829 14.7577Z" fill="#925471"/>
<path d="M31.5218 15.3188C31.4124 15.5378 31.4261 15.6062 31.604 15.6747C31.9597 15.8115 32.1513 15.5241 31.8913 15.264C31.6861 15.0587 31.6587 15.0587 31.5218 15.3188Z" fill="#925471"/>
<path d="M34.8881 15.6063C34.6829 15.6748 34.6829 15.7295 34.8197 15.9348C34.9429 16.0854 35.066 16.1265 35.1892 16.0444C35.4492 15.8801 35.2029 15.4968 34.8881 15.6063Z" fill="#925471"/>
<path d="M26.144 16.4549C25.4188 16.8245 25.2135 17.0708 25.4324 17.3035C25.5282 17.3994 27.1566 16.6055 27.2935 16.4001C27.403 16.2085 27.3072 16.0306 27.0882 16.0306C26.9924 16.0442 26.5682 16.2222 26.144 16.4549Z" fill="#925471"/>
<path d="M30.9061 16.1264C30.8103 16.2222 31.084 16.5781 31.2482 16.5781C31.3166 16.5781 31.3713 16.496 31.3713 16.3865C31.3713 16.1812 31.0429 16.0032 30.9061 16.1264Z" fill="#925471"/>
<path d="M35.2713 16.7287C35.2166 16.8108 35.2166 16.9066 35.2576 16.9477C35.3671 17.0572 35.7503 16.8792 35.7503 16.715C35.7503 16.537 35.3808 16.537 35.2713 16.7287Z" fill="#925471"/>
<path d="M39.8007 16.6875C39.7734 16.7422 39.7734 16.8517 39.8281 16.9339C39.9923 17.1666 41.306 17.9468 41.5386 17.9468C42.0175 17.9468 41.7439 17.5361 40.9639 17.0707C40.1428 16.5643 39.9239 16.4959 39.8007 16.6875Z" fill="#925471"/>
<path d="M29.4008 18.3165C29.2913 18.6039 29.5924 18.8092 29.825 18.6039C29.9618 18.4944 29.9618 18.4123 29.8524 18.2754C29.6471 18.0153 29.5103 18.029 29.4008 18.3165Z" fill="#925471"/>
<path d="M36.4755 18.8641C36.2292 18.9462 36.2566 19.4526 36.4892 19.4526C36.5987 19.4526 36.7355 19.3979 36.7766 19.3158C36.8997 19.1241 36.6671 18.7956 36.4755 18.8641Z" fill="#925471"/>
<path d="M28.7713 19.1651C28.7713 19.2335 28.8534 19.3567 28.9629 19.4389C29.1134 19.562 29.1819 19.562 29.2503 19.4389C29.305 19.3567 29.264 19.2335 29.1682 19.1651C28.9219 19.0145 28.7713 19.0145 28.7713 19.1651Z" fill="#925471"/>
<path d="M36.886 19.9591C36.6124 20.0549 36.6808 20.2739 36.9818 20.2739C37.1324 20.2739 37.2555 20.2192 37.2555 20.1507C37.2555 19.9728 37.0913 19.8907 36.886 19.9591Z" fill="#925471"/>
<path d="M33.2461 20.0958C33.0819 20.3559 33.0955 22.0532 33.2461 22.2038C33.3829 22.3406 33.4376 22.3133 33.5061 22.1216C33.684 21.6836 33.6429 20.0958 33.465 20.0411C33.3829 20.0137 33.2871 20.0411 33.2461 20.0958Z" fill="#925471"/>
<path d="M78.8278 20.5066C77.692 20.5613 77.473 20.6982 78.1983 20.9035C78.9783 21.1362 78.992 21.232 78.992 26.7346V31.7581L78.6362 32.0318C78.4309 32.1961 78.1572 32.3193 78.0204 32.3193C77.8699 32.3193 77.7604 32.374 77.7604 32.4561C77.7604 32.5383 78.4857 32.593 79.6762 32.593C80.8667 32.593 81.592 32.5383 81.592 32.4561C81.592 32.374 81.4688 32.3193 81.3183 32.3193C81.1541 32.3193 80.8804 32.1687 80.7025 31.9771L80.3604 31.6485V26.0228C80.3604 20.7529 80.3467 20.4107 80.1278 20.4381C79.9909 20.4518 79.4025 20.4929 78.8278 20.5066Z" fill="#925471"/>
<path d="M45.466 21.7794C45.466 21.8478 45.6165 21.9163 45.8081 21.9163C45.9997 21.9163 46.2734 22.0394 46.4239 22.19C46.6839 22.4501 46.6976 22.6417 46.6976 27.7747C46.6976 32.1275 46.6565 33.2225 46.4923 33.7837C46.2597 34.5639 45.726 35.1114 45.0555 35.262C44.4397 35.3989 44.5355 35.659 45.1649 35.5494C46.5607 35.3031 47.6144 34.2765 47.9291 32.8392C48.0249 32.4012 48.1207 30.1427 48.1618 27.2135C48.2439 22.4501 48.2575 22.3132 48.5312 22.1216C48.6818 22.0121 48.9554 21.9163 49.1196 21.9163C49.2975 21.9163 49.4344 21.8478 49.4344 21.7794C49.4344 21.6972 48.6818 21.6425 47.4502 21.6425C46.2186 21.6425 45.466 21.6972 45.466 21.7794Z" fill="#925471"/>
<path d="M52.8417 24.5856C51.1859 25.1058 50.1733 27.2685 50.5428 29.568C50.7891 31.1558 51.5554 32.1277 52.8828 32.5246C54.1417 32.8942 55.0996 32.7163 55.989 31.9634C56.5227 31.498 56.9469 30.7452 56.7554 30.5673C56.7006 30.5125 56.6185 30.5536 56.5775 30.6494C56.4406 31.06 55.688 31.7581 55.2227 31.9224C54.5796 32.1277 53.6627 32.0182 53.1564 31.6486C52.9238 31.4844 52.568 31.0053 52.3628 30.5809C52.048 29.9513 51.9796 29.6091 51.9659 28.7741V27.7339L54.4017 27.6928L56.8238 27.6654V27.2822C56.8238 27.0631 56.728 26.5841 56.6185 26.2008C56.1806 24.7088 54.6206 24.0381 52.8417 24.5856ZM54.5522 24.9415C55.0448 25.3248 55.1954 25.667 55.3048 26.5978L55.4006 27.3917H53.6627H51.9385L52.048 26.7757C52.3628 25.0921 53.5943 24.1887 54.5522 24.9415Z" fill="#925471"/>
<path d="M72.6563 24.5718C71.8078 24.8867 71.2331 25.4205 70.7679 26.3787C70.371 27.1726 70.33 27.4053 70.3163 28.4592C70.3026 29.1162 70.3847 29.9375 70.4942 30.2934C70.7268 31.0873 71.4384 31.9633 72.2047 32.3466C72.9847 32.7572 74.4626 32.7709 75.2289 32.374C75.7899 32.0865 76.6657 31.0873 76.6657 30.7314C76.6657 30.4029 76.4331 30.5261 76.1457 31.0052C75.7489 31.6759 74.8868 32.0865 74.052 32.0181C72.6699 31.8812 71.8626 30.7451 71.7668 28.8014L71.6984 27.6653H74.2026H76.7068L76.611 26.9672C76.4331 25.6121 75.8173 24.8456 74.6815 24.5308C73.9699 24.3392 73.2994 24.3528 72.6563 24.5718ZM74.3257 24.873C74.7499 25.1741 75.1604 26.1049 75.1604 26.803V27.3916H73.4499H71.7257L71.8215 26.8714C71.9721 26.1049 72.2184 25.5848 72.6563 25.1878C73.272 24.6129 73.8057 24.5034 74.3257 24.873Z" fill="#925471"/>
<path d="M84.3151 24.5034C83.3572 24.8182 82.9193 25.4205 82.933 26.4334C82.9466 27.2957 83.3845 27.8295 84.8624 28.8151C86.4635 29.8964 86.655 30.088 86.7508 30.7861C86.9013 31.9496 85.9435 32.7024 84.7529 32.3329C84.0414 32.1275 83.6856 31.6074 83.3982 30.4029C83.0424 28.9109 82.8235 29.1436 82.8235 31.0188C82.8235 31.8812 82.8782 32.5929 82.9466 32.5929C83.0151 32.5929 83.1519 32.4561 83.2614 32.2918L83.4666 31.9907L84.0003 32.3329C84.4382 32.5929 84.7119 32.6614 85.4919 32.6614C87.0929 32.6614 88.0098 31.9907 88.1192 30.7177C88.2013 29.6911 87.8045 29.1436 86.1898 28.0485C84.3424 26.7892 84.0551 26.5018 84.0551 25.8858C84.0551 24.6539 85.6561 24.2296 86.6413 25.2014C86.8603 25.4341 87.1477 25.9132 87.2708 26.2965C87.394 26.6661 87.5582 26.9809 87.6266 26.9809C87.695 26.9809 87.7498 26.5292 87.7498 25.9817C87.7498 25.4478 87.7908 24.8592 87.8319 24.6813C87.9003 24.4623 87.8592 24.3802 87.695 24.3802C87.5719 24.3802 87.4761 24.4897 87.4761 24.6539C87.4761 25.0783 87.134 25.133 86.5866 24.7908C86.0666 24.4623 84.8898 24.3117 84.3151 24.5034Z" fill="#925471"/>
<path d="M57.6448 24.6403C57.6448 24.7088 57.7542 24.8046 57.8911 24.8456C58.2469 24.9688 58.3016 25.092 59.7521 29.0342C60.45 30.9505 61.0932 32.5383 61.1616 32.552C61.2437 32.5793 61.7774 31.2379 62.3658 29.5817C62.9542 27.9254 63.4742 26.5429 63.5153 26.5019C63.57 26.4745 64.1447 27.8433 64.8016 29.5269C65.4721 31.2105 66.0605 32.593 66.1289 32.593C66.1973 32.593 66.7721 30.9915 67.4289 29.0478C68.5647 25.6122 68.9478 24.7909 69.3584 24.7909C69.4678 24.7909 69.5499 24.7224 69.5499 24.654C69.5499 24.5719 69.0436 24.5171 68.3184 24.5171C67.5931 24.5171 67.0868 24.5719 67.0868 24.654C67.0868 24.7224 67.21 24.7909 67.3742 24.7909C67.8942 24.7909 68.1815 25.051 68.1815 25.5163C68.1815 25.7627 67.8257 27.0357 67.3879 28.3498L66.5805 30.7451L65.8963 28.9657C65.5268 27.9802 64.9795 26.584 64.6921 25.8449C64.4184 25.1194 64.1174 24.5171 64.0216 24.5171C63.9258 24.5171 63.3784 25.8449 62.7763 27.46C62.1879 29.0889 61.6679 30.4303 61.6268 30.4714C61.5721 30.4988 61.1479 29.349 60.6553 27.9254C59.6974 25.092 59.6837 24.9004 60.5048 24.8183C60.7374 24.7909 60.929 24.7224 60.929 24.6403C60.929 24.5719 60.2174 24.5171 59.2869 24.5171C58.3563 24.5171 57.6448 24.5719 57.6448 24.6403Z" fill="#925471"/>
</svg>
