<svg width="24" height="24" viewBox="0 0 24 24" fill="none" xmlns="http://www.w3.org/2000/svg">
<path d="M12 12C13.5913 12 15.1174 11.3679 16.2426 10.2426C17.3679 9.11742 18 7.5913 18 6C18 4.4087 17.3679 2.88258 16.2426 1.75736C15.1174 0.632141 13.5913 0 12 0C10.4087 0 8.88258 0.632141 7.75736 1.75736C6.63214 2.88258 6 4.4087 6 6C6 7.5913 6.63214 9.11742 7.75736 10.2426C8.88258 11.3679 10.4087 12 12 12ZM9.85781 14.25C5.24063 14.25 1.5 17.9906 1.5 22.6078C1.5 23.3766 2.12344 24 2.89219 24H21.1078C21.8766 24 22.5 23.3766 22.5 22.6078C22.5 17.9906 18.7594 14.25 14.1422 14.25H9.85781Z" fill="#311C26"/>
</svg>
